# xmcd CD database file
#
# Track frame offsets:
#	150
#	11466
#	22891
#	40449
#	52862
#	75672
#	89519
#	101991
#	127614
#	145319
#	160603
#	170293
#	185652
#	197196
#
# Disc length: 2909 seconds
#
# Revision: 0
# Processed by: cddbd v1.4PL0 Copyright (c) Steve Scherf et al.
# Submitted via: CDex 1.40Beta8
#
DISCID=ac0b5b0e
DTITLE=Sunnyland Slim - She Got A Thing Goin' On
DYEAR=1998
DGENRE=Blues
TTITLE0=She Got a Thing Goin' On
TTITLE1=Sad and Evil Woman
TTITLE2=Long Tall Daddy
TTITLE3=Rockin' My Blues Away
TTITLE4=Bus Station Blues
TTITLE5=Tryin' To Make a Living
TTITLE6=See My Lawyer
TTITLE7=Darling, Yes, I Love You 
TTITLE8=Feel Like Stroking
TTITLE9=Goin' Down Slow
TTITLE10=Big Time Operator
TTITLE11=Done You Wrong
TTITLE12=She Got That Jive
TTITLE13=Black Cat Cross My Trail
EXTD=YEAR: 1998 ID3G: 0
EXTT0=
EXTT1=
EXTT2=
EXTT3=
EXTT4=
EXTT5=
EXTT6=
EXTT7=
EXTT8=
EXTT9=
EXTT10=
EXTT11=
EXTT12=
EXTT13=
PLAYORDER=
